<svg width="18" height="19" viewBox="0 0 18 19" fill="none" xmlns="http://www.w3.org/2000/svg">
<path d="M12.875 1.34766H4.95833C2.77221 1.34766 1 3.11986 1 5.30599V13.2227C1 15.4088 2.77221 17.181 4.95833 17.181H12.875C15.0611 17.181 16.8333 15.4088 16.8333 13.2227V5.30599C16.8333 3.11986 15.0611 1.34766 12.875 1.34766Z" stroke="#00FF83" stroke-width="2"/>
<path d="M12.0833 8.76467C12.181 9.42353 12.0684 10.0964 11.7617 10.6876C11.4549 11.2789 10.9695 11.7583 10.3746 12.0577C9.7796 12.3572 9.10537 12.4614 8.44776 12.3556C7.79016 12.2498 7.18266 11.9393 6.71168 11.4683C6.2407 10.9974 5.93022 10.3899 5.8244 9.73226C5.71858 9.07465 5.82282 8.40042 6.12227 7.80547C6.42173 7.21051 6.90116 6.72513 7.49238 6.41836C8.08359 6.11159 8.75649 5.99905 9.41535 6.09676C10.0874 6.19641 10.7096 6.50958 11.19 6.99C11.6704 7.47042 11.9836 8.09261 12.0833 8.76467Z" stroke="#00FF83" stroke-width="2"/>
</svg>
