<svg width="21" height="21" viewBox="0 0 21 21" fill="none" xmlns="http://www.w3.org/2000/svg">
<path d="M19.2914 10.7429C19.295 12.1177 18.9737 13.474 18.3539 14.7012C17.6189 16.1718 16.489 17.4087 15.0908 18.2734C13.6926 19.1381 12.0812 19.5964 10.4372 19.597C9.06234 19.6006 7.70607 19.2794 6.47887 18.6595L2.10387 19.0762L2.52054 14.7012C1.90067 13.474 1.57945 12.1177 1.58304 10.7429C1.58367 9.09887 2.04201 7.4875 2.9067 6.08927C3.7714 4.69104 5.0083 3.56117 6.47887 2.8262C7.70607 2.20634 9.06234 1.88512 10.4372 1.8887H10.958C13.1292 2.00848 15.18 2.92491 16.7176 4.46251C18.2552 6.00011 19.1716 8.05084 19.2914 10.222V10.7429Z" stroke="#00FF83" stroke-width="2" stroke-linecap="round" stroke-linejoin="round"/>
<path d="M14.0825 12.5569V13.6546C14.0829 13.7565 14.062 13.8573 14.021 13.9507C13.9801 14.0441 13.9202 14.1279 13.8449 14.1968C13.7697 14.2657 13.6808 14.3181 13.5841 14.3508C13.4874 14.3834 13.3849 14.3955 13.2832 14.3864C12.1551 14.264 11.0714 13.8793 10.1193 13.2631C9.23344 12.7013 8.48241 11.9517 7.91952 11.0677C7.29992 10.1131 6.91433 9.02633 6.79399 7.89535C6.78483 7.79416 6.79688 7.69219 6.82937 7.59591C6.86186 7.49963 6.91409 7.41115 6.98272 7.33612C7.05135 7.26108 7.13488 7.20113 7.228 7.16009C7.32111 7.11904 7.42177 7.09779 7.52357 7.09769H8.62344C8.80136 7.09594 8.97386 7.15883 9.10876 7.27461C9.24367 7.3904 9.33178 7.5512 9.35669 7.72703C9.40311 8.07832 9.4892 8.42324 9.61332 8.7552C9.66265 8.88617 9.67332 9.0285 9.64408 9.16533C9.61484 9.30216 9.54691 9.42776 9.44834 9.52725L8.98273 9.99193C9.50464 10.908 10.2646 11.6664 11.1825 12.1873L11.6481 11.7226C11.7478 11.6242 11.8736 11.5565 12.0107 11.5273C12.1478 11.4981 12.2904 11.5087 12.4217 11.558C12.7543 11.6818 13.0999 11.7678 13.4519 11.8141C13.63 11.8392 13.7926 11.9287 13.9089 12.0657C14.0251 12.2026 14.0869 12.3774 14.0825 12.5569Z" fill="#DE9000" stroke="#00FF83"/>
</svg>
