<svg width="115" height="46" viewBox="0 0 115 46" fill="none" xmlns="http://www.w3.org/2000/svg">
<path d="M29.4607 1.49025C27.4172 -0.496751 24.1716 -0.496751 22.1949 1.49025L15.51 7.97937L8.87193 1.49025C6.82841 -0.496751 3.58283 -0.496751 1.6061 1.49025C-0.437419 3.47726 -0.437419 6.6261 1.6061 8.54048L9.2192 15.934L1.53264 23.3935C-0.510879 25.3805 -0.510879 28.5293 1.53264 30.4437C3.57615 32.4307 6.82174 32.4307 8.79847 30.4437L15.4299 24.0074L22.1281 30.5097C24.1716 32.4968 27.4172 32.4968 29.3939 30.5097C31.4374 28.5227 31.4374 25.3739 29.3939 23.4595L21.7675 16.0066L29.4674 8.53388C31.5109 6.54688 31.5109 3.39804 29.4674 1.48365L29.4607 1.49025Z" fill="white"/>
<path d="M39 0C36.2279 0 34 2.2696 34 5.09V26.91C34 29.7304 36.2279 32 39 32C41.7721 32 44 29.7304 44 26.91V5.09C44 2.2696 41.7721 0 39 0Z" fill="white"/>
<path d="M64.9637 0.00657143C56.1104 0.00657143 49 7.02486 49 15.6137V15.8831C49 15.8831 49 15.9226 49 15.9423C49 15.9686 49 15.9883 49 16.0146V40.9597C49 43.7526 51.2975 46 54.1562 46C57.0149 46 59.3124 43.7526 59.3124 40.9597V30.1629C59.3124 30.1629 59.3586 30.1826 59.385 30.1891C61.1279 30.8726 63.0095 31.2143 65.0297 31.2143C73.883 31.2143 81 24.196 81 15.6071C80.9274 7.01829 73.817 0 64.9637 0V0.00657143ZM64.9637 20.4503C62.2437 20.4503 60.0122 18.2686 60.0122 15.6137C60.0122 12.9589 62.2437 10.7771 64.9637 10.7771C67.6837 10.7771 69.9152 12.9589 69.9152 15.6137C69.9152 18.2686 67.6837 20.4503 64.9637 20.4503Z" fill="white"/>
<path d="M99.0396 0C90.1845 0 83 7.01929 83 15.6751V15.9446C83.0066 16.3323 83.033 16.7135 83.0726 17.0947V40.959C83.0726 43.7523 85.3706 46 88.2299 46C91.0891 46 93.3871 43.7523 93.3871 40.959V30.2592C95.1304 30.9427 97.0124 31.2845 99.033 31.2845C107.888 31.2845 115 24.2652 115 15.6751C115 7.08501 107.829 0 99.0396 0ZM99.0396 20.4466C96.319 20.4466 94.0871 18.2646 94.0871 15.6094C94.0871 12.9541 96.319 10.7721 99.0396 10.7721C101.76 10.7721 103.992 12.9541 103.992 15.6094C103.992 18.2646 101.76 20.4466 99.0396 20.4466Z" fill="white"/>
</svg>
