<?xml version="1.0" encoding="utf-8"?>
<!-- Generator: Adobe Illustrator 27.3.1, SVG Export Plug-In . SVG Version: 6.00 Build 0)  -->
<svg version="1.1" id="brand-vorttex-svg" xmlns="http://www.w3.org/2000/svg" xmlns:xlink="http://www.w3.org/1999/xlink" x="0px"
	 y="0px" viewBox="0 0 729.4 96.5" style="enable-background:new 0 0 729.4 96.5;" xml:space="preserve">
<path d="M85.3,0c-1.1,0-2.1,0.6-2.6,1.6L47.3,71.9l-0.1-0.2L47.1,72L10.9,1.6C10.4,0.6,9.4,0,8.3,0H2.2c-1.6,0-2.7,1.7-2,3.1
	l45.2,92c0.3,0.6,0.8,0.9,1.5,0.9h0.2c0.6,0,1.2-0.4,1.5-0.9l44.8-92C94.1,1.7,93,0,91.4,0H85.3z M538.6,54.4h33.9
	c1.2,0,2.2-1,2.2-2.2V44c0-1.2-1-2.2-2.2-2.2h-33.9V12h57.7c1.2,0,2.2-1,2.2-2.2l-0.1-7.3c0-1.2-1-2.1-2.2-2.1h-66.9
	c-1.4,0-2.6,1.1-2.6,2.6v90.3c0,1.4,1.1,2.6,2.6,2.6h66.9c1.2,0,2.2-1,2.2-2.2l-0.2-7.4c0-1.2-1-2.1-2.2-2.1h-57.5L538.6,54.4
	L538.6,54.4z M385.6,12.1h18.9v81.6c0,1.2,1,2.2,2.2,2.2h7.7c1.2,0,2.2-1,2.2-2.2V12.1h28.9v81.6c0,1.2,1,2.2,2.2,2.2h7.7
	c1.2,0,2.2-1,2.2-2.2V12.1h18.8c1.5,0,2.7-1.2,2.7-2.7V2.7c0-1.5-1.2-2.7-2.7-2.7h-90.7c-1.5,0-2.7,1.2-2.7,2.7v6.7
	C382.9,10.9,384.1,12.1,385.6,12.1z M728.2,0.3h-14c-0.9,0-1.7,0.4-2.2,1.1l-28.8,36.3L652.5,1.2c-0.5-0.5-1.1-0.9-1.8-0.9h-13.6
	c-1,0-1.6,1.2-0.9,2L674.6,48l-37.9,45.6c-0.8,1-0.1,2.5,1.2,2.5h11.7c1.4,0,2.8-0.6,3.7-1.7l30-36.1l28.6,36.2c0.8,1,2,1.6,3.4,1.6
	H727c1.5,0,2.3-1.7,1.3-2.8L691.5,48l37.6-45.8C729.7,1.4,729.2,0.3,728.2,0.3z M178.7,0.4c-26.3,0-47.7,21.4-47.7,47.7
	s21.4,47.7,47.7,47.7s47.7-21.4,47.7-47.7S205,0.4,178.7,0.4z M178.7,83.5c-19.5,0-35.3-15.8-35.3-35.3s15.8-35.3,35.3-35.3
	S214,28.7,214,48.2S198.2,83.5,178.7,83.5z M336.2,96.5h7.8c1.5,0,2.4-1.6,1.7-2.9l-23.3-39.2c14-1.2,25-13.1,24.7-27.4
	c-0.2-14.9-12.6-26.7-27.5-26.7h-43c-1,0-1.8,0.8-1.8,1.8v91.8c0,1.2,1,2.2,2.2,2.2h7.5c1.2,0,2.2-1,2.2-2.2V54.5H309l23.2,39.6
	C333,95.6,334.6,96.5,336.2,96.5z M286.7,12.9h33.4c8,0,14.5,6.5,14.5,14.5S328.1,42,320.1,42h-33.4V12.9z"/>
</svg>